<mxfile host="app.diagrams.net" modified="2023-07-01T08:38:44.781Z" agent="Mozilla/5.0 (X11; Linux x86_64; rv:109.0) Gecko/20100101 Firefox/114.0" etag="_7gSWoAiHB1wR1P8g2qJ" version="21.5.2" type="device">
  <diagram name="Page-1" id="bqEZuofcd8WuV6ia_vs0">
    <mxGraphModel dx="880" dy="496" grid="1" gridSize="10" guides="1" tooltips="1" connect="1" arrows="1" fold="1" page="1" pageScale="1" pageWidth="850" pageHeight="1100" math="0" shadow="0">
      <root>
        <mxCell id="0" />
        <mxCell id="1" parent="0" />
        <mxCell id="jYA5gbJcj_QCcZgO4l_s-1" value="Local/Global API&lt;br&gt;(deprecated)" style="rounded=0;whiteSpace=wrap;html=1;" vertex="1" parent="1">
          <mxGeometry x="240" y="240" width="120" height="40" as="geometry" />
        </mxCell>
        <mxCell id="jYA5gbJcj_QCcZgO4l_s-2" value="C/C++ Runtime" style="rounded=0;whiteSpace=wrap;html=1;" vertex="1" parent="1">
          <mxGeometry x="400" y="240" width="120" height="40" as="geometry" />
        </mxCell>
        <mxCell id="jYA5gbJcj_QCcZgO4l_s-10" style="edgeStyle=orthogonalEdgeStyle;rounded=0;orthogonalLoop=1;jettySize=auto;html=1;" edge="1" parent="1" source="jYA5gbJcj_QCcZgO4l_s-3" target="jYA5gbJcj_QCcZgO4l_s-1">
          <mxGeometry relative="1" as="geometry" />
        </mxCell>
        <mxCell id="jYA5gbJcj_QCcZgO4l_s-11" style="edgeStyle=orthogonalEdgeStyle;rounded=0;orthogonalLoop=1;jettySize=auto;html=1;entryX=0.5;entryY=1;entryDx=0;entryDy=0;" edge="1" parent="1" source="jYA5gbJcj_QCcZgO4l_s-3" target="jYA5gbJcj_QCcZgO4l_s-2">
          <mxGeometry relative="1" as="geometry" />
        </mxCell>
        <mxCell id="jYA5gbJcj_QCcZgO4l_s-3" value="Heap manager API" style="rounded=0;whiteSpace=wrap;html=1;" vertex="1" parent="1">
          <mxGeometry x="320" y="320" width="120" height="40" as="geometry" />
        </mxCell>
        <mxCell id="jYA5gbJcj_QCcZgO4l_s-9" style="edgeStyle=orthogonalEdgeStyle;rounded=0;orthogonalLoop=1;jettySize=auto;html=1;entryX=0.5;entryY=1;entryDx=0;entryDy=0;" edge="1" parent="1" source="jYA5gbJcj_QCcZgO4l_s-4" target="jYA5gbJcj_QCcZgO4l_s-3">
          <mxGeometry relative="1" as="geometry" />
        </mxCell>
        <mxCell id="jYA5gbJcj_QCcZgO4l_s-4" value="Virtual API" style="rounded=0;whiteSpace=wrap;html=1;" vertex="1" parent="1">
          <mxGeometry x="320" y="400" width="120" height="40" as="geometry" />
        </mxCell>
        <mxCell id="jYA5gbJcj_QCcZgO4l_s-5" value="File Mappings API" style="rounded=0;whiteSpace=wrap;html=1;" vertex="1" parent="1">
          <mxGeometry x="560" y="400" width="120" height="40" as="geometry" />
        </mxCell>
        <mxCell id="jYA5gbJcj_QCcZgO4l_s-7" style="edgeStyle=orthogonalEdgeStyle;rounded=0;orthogonalLoop=1;jettySize=auto;html=1;entryX=0.5;entryY=1;entryDx=0;entryDy=0;" edge="1" parent="1" source="jYA5gbJcj_QCcZgO4l_s-6" target="jYA5gbJcj_QCcZgO4l_s-4">
          <mxGeometry relative="1" as="geometry">
            <Array as="points">
              <mxPoint x="500" y="460" />
              <mxPoint x="380" y="460" />
            </Array>
          </mxGeometry>
        </mxCell>
        <mxCell id="jYA5gbJcj_QCcZgO4l_s-8" style="edgeStyle=orthogonalEdgeStyle;rounded=0;orthogonalLoop=1;jettySize=auto;html=1;entryX=0.5;entryY=1;entryDx=0;entryDy=0;exitX=0.5;exitY=0;exitDx=0;exitDy=0;" edge="1" parent="1" source="jYA5gbJcj_QCcZgO4l_s-6" target="jYA5gbJcj_QCcZgO4l_s-5">
          <mxGeometry relative="1" as="geometry">
            <Array as="points">
              <mxPoint x="500" y="460" />
              <mxPoint x="620" y="460" />
            </Array>
          </mxGeometry>
        </mxCell>
        <mxCell id="jYA5gbJcj_QCcZgO4l_s-6" value="Memory manager" style="rounded=0;whiteSpace=wrap;html=1;" vertex="1" parent="1">
          <mxGeometry x="440" y="510" width="120" height="40" as="geometry" />
        </mxCell>
        <mxCell id="jYA5gbJcj_QCcZgO4l_s-12" value="" style="endArrow=none;dashed=1;html=1;dashPattern=1 3;strokeWidth=2;rounded=0;" edge="1" parent="1">
          <mxGeometry width="50" height="50" relative="1" as="geometry">
            <mxPoint x="200" y="480" as="sourcePoint" />
            <mxPoint x="720" y="480" as="targetPoint" />
          </mxGeometry>
        </mxCell>
        <mxCell id="jYA5gbJcj_QCcZgO4l_s-14" value="&lt;div align=&quot;left&quot;&gt;User mode&lt;br&gt;&lt;br&gt;Kernel Mode&lt;/div&gt;" style="text;html=1;strokeColor=none;fillColor=none;align=left;verticalAlign=middle;whiteSpace=wrap;rounded=0;" vertex="1" parent="1">
          <mxGeometry x="210" y="476" width="150" height="30" as="geometry" />
        </mxCell>
      </root>
    </mxGraphModel>
  </diagram>
</mxfile>
